PathFileType	4	(X/Y/Z)	Walk4.trc
DataRate	CameraRate	NumFrames	NumMarkers	Units	OrigDataRate	OrigDataStartFrame	OrigNumFrames
200.000000	200.000000	4	59	mm	200.000000	511	543
Frame#	Times		RFHD		CLAV		RBack		LASI		RACR1		RUA1		RElbow		RElbowM		RFA1		RWRR		RWRU		LACR1		LUA1		LFA1		LWRR		LWRU		RTH1		RTH3		RTH2		RTB3		RTB2		LTH1		LTH2		LTB2		RMT1		RCAR		LFHD		C7		RTB1		RTB4		RPSI		T10		LTH4		LBHD		LTH3		RLFC		STRN		RBHD		LLFC		LElbowM		LCAR		LTB4		RTH4		LTB1		LElbow		LPSI		LToe		LMMAL		RMT5		LCAL		RASI		LMT1		LMT5		LTB3		LLMAL		RToe		RCAL		RMMAL		RLMAL
			X1	Y1	Z1	X2	Y2	Z2	X3	Y3	Z3	X4	Y4	Z4	X5	Y5	Z5	X6	Y6	Z6	X7	Y7	Z7	X8	Y8	Z8	X9	Y9	Z9	X10	Y10	Z10	X11	Y11	Z11	X12	Y12	Z12	X13	Y13	Z13	X14	Y14	Z14	X15	Y15	Z15	X16	Y16	Z16	X17	Y17	Z17	X18	Y18	Z18	X19	Y19	Z19	X20	Y20	Z20	X21	Y21	Z21	X22	Y22	Z22	X23	Y23	Z23	X24	Y24	Z24	X25	Y25	Z25	X26	Y26	Z26	X27	Y27	Z27	X28	Y28	Z28	X29	Y29	Z29	X30	Y30	Z30	X31	Y31	Z31	X32	Y32	Z32	X33	Y33	Z33	X34	Y34	Z34	X35	Y35	Z35	X36	Y36	Z36	X37	Y37	Z37	X38	Y38	Z38	X39	Y39	Z39	X40	Y40	Z40	X41	Y41	Z41	X42	Y42	Z42	X43	Y43	Z43	X44	Y44	Z44	X45	Y45	Z45	X46	Y46	Z46	X47	Y47	Z47	X48	Y48	Z48	X49	Y49	Z49	X50	Y50	Z50	X51	Y51	Z51	X52	Y52	Z52	X53	Y53	Z53	X54	Y54	Z54	X55	Y55	Z55	X56	Y56	Z56	X57	Y57	Z57	X58	Y58	Z58	X59	Y59	Z59

511	2.555	782.08	1432.7	4.3672	763.56	1192.3	-54.753	570.28	1163.1	60.26	730.25	824.47	-204.78	684.27	1232.9	120.35	682.51	1097.3	209.15	666.32	972.94	248.43	610.95	941	179.73	723.51	853.95	252.81	734.09	753.55	216.68	706.41	756.86	284.02	688.74	1214.6	-243.91	708.06	1053	-312.36	753.39	855.58	-360.57	813.01	760.34	-334.01	772.99	746.33	-381.06	702.43	649.7	173.33	762.28	490.95	138.16	783.15	594.13	139.02	662.81	160.41	42.528	673.07	247.69	102.34	668.79	654.99	-251.64	723.91	581.39	-208	672.99	212.37	-146.76	677.78	49.422	13.47	747.69	696.68	268.13	794.6	1442.5	-90.828	623.06	1278	-61.602	760.75	298.84	69.504	708.03	230.47	55.663	487.35	857.62	17.192	533.63	1081.3	-43.302	669.56	570.6	-229.96	668.23	1365.4	-126.44	670.79	488.06	-199.66	751.96	409.58	116.88	812.21	1086.2	-47.256	652.3	1360.3	6.6912	696.28	397.09	-161.24	644.57	908.17	-271.43	823.72	709.28	-376.97	691.9	212.44	-87.494	730.09	569.19	156.95	711.02	298	-94.287	674.34	936.42	-337.36	480.07	862.41	-88.26	798.74	29.863	-78.571	645.73	74.547	-34.305	639.11	50.886	92.619	579.34	44.742	-68.585	739.4	846.87	125.72	747.06	33.659	-52.939	703.09	21.514	-137.44	680.92	130.06	-82.394	622.26	58.31	-112.55	716.8	39.225	57.584	530.12	127.9	12.435	611.88	129.16	-10.938	584.25	126.91	67.569
512	2.56	787.2	1432.7	4.5375	768.66	1192.2	-54.641	575.29	1163.1	60.033	734.8	824.22	-205.04	689.3	1232.8	120.31	687.38	1097.2	209.07	670.96	972.97	248.39	615.71	941.01	179.59	728.06	853.96	252.91	738.57	753.49	217.04	710.85	756.95	284.33	694.16	1214.8	-243.88	713.34	1053.3	-312.57	760.55	856.69	-360.27	821.47	762.6	-333.04	781.96	747.77	-380.27	707.49	649.88	173.39	769.24	491.97	137.42	789.02	595.38	138.97	676.8	158.57	41.978	684.67	246.04	101.82	673.02	654.85	-251.56	727.66	580.98	-207.88	674.42	212.06	-146.72	695.24	48.55	12.812	752.26	696.85	268.67	799.76	1442.5	-90.648	628.2	1278	-61.679	770.75	299.63	68.713	720	229.88	54.99	491.95	857.91	16.813	538.63	1081.4	-43.635	673.33	570.38	-229.86	673.43	1365.4	-126.39	674.08	487.86	-199.66	759.59	410.26	116.1	817.19	1086	-46.507	657.41	1360.2	6.7352	699	396.64	-161.26	650.48	908.21	-271.85	833.41	711.86	-375.93	693.2	212.02	-87.426	736.12	569.77	156.55	712.95	297.43	-94.192	680.21	936.61	-337.76	484.89	862.57	-88.548	798.93	29.755	-78.511	645.93	74.513	-34.126	656.88	48.492	92.092	579.43	44.956	-68.531	743.76	847.2	125.98	747.1	33.623	-52.902	703.08	21.529	-137.41	681.57	129.71	-82.303	622.43	58.404	-112.5	734.81	39.591	56.706	544.96	121.93	12.388	626.67	125.89	-11.226	599.37	122.68	67.332
513	2.565	792.32	1432.6	4.7167	773.76	1192.1	-54.523	580.29	1163.2	59.808	739.39	823.9	-205.25	694.33	1232.7	120.27	692.27	1097.1	209	675.6	972.96	248.36	620.5	940.95	179.44	732.63	853.92	253.05	743.11	753.4	217.44	715.31	756.99	284.67	699.57	1215	-243.85	718.59	1053.6	-312.78	767.66	857.78	-359.98	829.87	764.86	-332.07	790.87	749.21	-379.47	712.55	650	173.46	776.07	492.9	136.65	794.84	596.52	138.91	690.89	156.71	41.45	696.26	244.32	101.29	677.3	654.68	-251.46	731.47	580.57	-207.74	675.88	211.73	-146.68	712.85	47.757	12.215	756.86	696.99	269.27	804.93	1442.4	-90.456	633.35	1278	-61.749	780.61	300.38	67.936	731.95	229.26	54.333	496.57	858.1	16.487	543.64	1081.5	-43.957	677.17	570.14	-229.75	678.64	1365.4	-126.33	677.46	487.64	-199.65	766.97	410.83	115.3	822.16	1085.8	-45.776	662.53	1360.1	6.7871	701.79	396.17	-161.28	656.38	908.19	-272.26	843.01	714.44	-374.87	694.54	211.58	-87.354	742.1	570.28	156.15	714.93	296.84	-94.095	686.05	936.75	-338.14	489.7	862.66	-88.778	799.12	29.646	-78.444	646.12	74.483	-33.932	674.81	46.181	91.609	579.54	45.175	-68.466	748.14	847.47	126.23	747.15	33.595	-52.87	703.08	21.544	-137.39	682.24	129.35	-82.203	622.62	58.504	-112.45	752.89	40.094	55.9	560.09	115.87	12.326	641.65	122.58	-11.502	614.7	118.4	67.103
514	2.57	797.44	1432.4	4.9041	778.85	1191.9	-54.4	585.28	1163.1	59.587	744	823.54	-205.4	699.37	1232.6	120.24	697.19	1096.9	208.94	680.25	972.89	248.34	625.33	940.82	179.3	737.22	853.85	253.24	747.69	753.26	217.89	719.81	757	285.05	704.99	1215.1	-243.81	723.82	1053.8	-313	774.72	858.84	-359.68	838.19	767.1	-331.1	799.74	750.65	-378.67	717.61	650.07	173.54	782.75	493.75	135.84	800.6	597.54	138.85	705.07	154.86	40.95	707.81	242.55	100.77	681.62	654.48	-251.35	735.34	580.16	-207.57	677.38	211.38	-146.64	730.57	47.067	11.697	761.51	697.09	269.93	810.11	1442.3	-90.256	638.49	1278	-61.809	790.32	301.1	67.175	743.87	228.62	53.694	501.23	858.19	16.221	548.64	1081.5	-44.266	681.07	569.87	-229.63	683.84	1365.3	-126.25	680.91	487.4	-199.63	774.09	411.3	114.48	827.11	1085.6	-45.075	667.64	1359.9	6.8476	704.66	395.68	-161.3	662.27	908.11	-272.65	852.51	717.01	-373.8	695.9	211.13	-87.279	748.01	570.71	155.73	716.95	296.23	-93.998	691.85	936.83	-338.52	494.5	862.68	-88.946	799.31	29.536	-78.369	646.3	74.457	-33.724	692.87	43.989	91.187	579.66	45.398	-68.393	752.55	847.69	126.47	747.2	33.573	-52.842	703.08	21.559	-137.36	682.93	128.98	-82.098	622.83	58.61	-112.4	771.02	40.758	55.188	575.52	109.75	12.251	656.83	119.23	-11.761	630.23	114.11	66.882
